<?xml version="1.0" encoding="UTF-8" standalone="no"?>
<svg width="515px" height="529px" viewBox="0 0 515 529" version="1.1" xmlns="http://www.w3.org/2000/svg" xmlns:xlink="http://www.w3.org/1999/xlink" xmlns:sketch="http://www.bohemiancoding.com/sketch/ns">
    <!-- Generator: Sketch 3.5.1 (25234) - http://www.bohemiancoding.com/sketch -->
    <title>ico-edit</title>
    <desc>Created with Sketch.</desc>
    <defs></defs>
    <g id="Page-1" stroke="none" stroke-width="1" fill="none" fill-rule="evenodd" sketch:type="MSPage">
        <g id="edit26" sketch:type="MSLayerGroup" fill="#FFFFFF">
            <path d="M506.74,204.829 L477.258,234.315 L395.111,152.176 L424.605,122.687 C433.897,113.395 447.858,112.246 455.743,120.122 L509.306,173.694 C517.179,181.567 516.032,195.537 506.74,204.829 L506.74,204.829 Z M381.421,165.859 L463.568,248.006 L267.685,443.886 C266.787,444.784 264.292,447.279 260.793,448.171 C260.388,448.366 259.974,448.532 259.564,448.662 L157.334,481.242 C154.473,482.146 151.598,481.561 149.733,479.693 C147.862,477.825 147.283,474.953 148.178,472.091 L180.758,369.87 C180.897,369.451 181.063,369.043 181.249,368.646 C182.145,365.141 184.633,362.653 185.541,361.749 L222.353,324.937 L98.02,324.937 C93.008,324.937 88.941,320.871 88.941,315.858 C88.941,310.835 93.007,306.78 98.02,306.78 L240.511,306.78 L381.421,165.859 L381.421,165.859 Z M242.417,437.574 L191.848,387.013 L178.283,429.594 L199.837,451.151 L242.417,437.574 L242.417,437.574 Z M378.265,198.508 C375.357,195.597 370.64,195.597 367.738,198.508 L215.03,351.206 C212.125,354.114 212.125,358.831 215.03,361.739 C217.935,364.647 222.655,364.647 225.56,361.739 L378.265,209.04 C381.172,206.129 381.172,201.413 378.265,198.508 L378.265,198.508 Z M369.037,489.217 C369.037,494.672 364.599,499.117 359.142,499.117 L178.956,499.117 L162.681,504.306 C159.412,505.347 156.052,505.872 152.689,505.872 C145.528,505.872 138.87,503.419 133.423,499.116 L39.885,499.116 C34.427,499.116 29.976,494.682 29.976,489.216 L29.976,73.424 C29.976,67.966 34.421,63.524 39.885,63.524 L77.005,63.524 L77.005,79.199 C77.005,84.663 81.435,89.096 86.908,89.096 C92.379,89.096 96.809,84.663 96.809,79.199 L96.809,63.523 L153.729,63.523 L153.729,79.198 C153.729,84.662 158.159,89.095 163.63,89.095 C169.103,89.095 173.533,84.662 173.533,79.198 L173.533,63.523 L223.03,63.523 L223.03,79.198 C223.03,84.662 227.46,89.095 232.934,89.095 C238.404,89.095 242.834,84.662 242.834,79.198 L242.834,63.523 L297.287,63.523 L297.287,79.198 C297.287,84.662 301.714,89.095 307.182,89.095 C312.655,89.095 317.088,84.662 317.088,79.198 L317.088,63.523 L359.16,63.523 C364.61,63.523 369.056,67.965 369.056,73.423 L369.056,141.994 L379.435,131.62 L398.757,112.295 L398.757,73.424 C398.757,51.593 380.995,33.828 359.16,33.828 L317.088,33.828 L317.088,9.904 C317.088,4.437 312.654,0 307.182,0 C301.72,0 297.287,4.431 297.287,9.904 L297.287,33.828 L242.822,33.828 L242.822,9.904 C242.822,4.437 238.392,0 232.921,0 C227.448,0 223.018,4.431 223.018,9.904 L223.018,33.828 L173.521,33.828 L173.521,9.904 C173.521,4.437 169.091,0 163.617,0 C158.147,0 153.717,4.431 153.717,9.904 L153.717,33.828 L96.797,33.828 L96.797,9.904 C96.797,4.437 92.366,0 86.896,0 C81.423,0 76.993,4.431 76.993,9.904 L76.993,33.828 L39.873,33.828 C18.041,33.828 0.271,51.593 0.271,73.424 L0.271,489.211 C0.271,511.045 18.042,528.807 39.873,528.807 L359.137,528.807 C380.972,528.807 398.734,511.045 398.734,489.211 L398.734,345.059 L369.032,374.767 L369.032,489.217 L369.037,489.217 L369.037,489.217 Z M291.707,152.436 L98.02,152.436 C93.008,152.436 88.941,156.497 88.941,161.515 C88.941,166.534 93.007,170.594 98.02,170.594 L291.707,170.594 C296.72,170.594 300.786,166.533 300.786,161.515 C300.786,156.497 296.72,152.436 291.707,152.436 L291.707,152.436 Z M291.707,225.635 L98.02,225.635 C93.008,225.635 88.941,229.698 88.941,234.714 C88.941,239.733 93.007,243.793 98.02,243.793 L291.707,243.793 C296.72,243.793 300.786,239.732 300.786,234.714 C300.786,229.698 296.72,225.635 291.707,225.635 L291.707,225.635 Z" id="Shape" sketch:type="MSShapeGroup"></path>
        </g>
    </g>
</svg>