<?xml version="1.0" encoding="UTF-8" standalone="no"?>
<svg width="56px" height="50px" viewBox="0 0 56 50" version="1.1" xmlns="http://www.w3.org/2000/svg" xmlns:xlink="http://www.w3.org/1999/xlink" xmlns:sketch="http://www.bohemiancoding.com/sketch/ns">
    <!-- Generator: Sketch 3.4.4 (17249) - http://www.bohemiancoding.com/sketch -->
    <title>icon-cash</title>
    <desc>Created with Sketch.</desc>
    <defs></defs>
    <g id="Welcome" stroke="none" stroke-width="1" fill="none" fill-rule="evenodd" sketch:type="MSPage">
        <g id="homepage" sketch:type="MSArtboardGroup" transform="translate(-848.000000, -1899.000000)" fill="#FF5E00">
            <g id="love-raw" sketch:type="MSLayerGroup" transform="translate(120.000000, 1798.000000)">
                <g id="money405" transform="translate(728.000000, 101.000000)" sketch:type="MSShapeGroup">
                    <g id="Group">
                        <path d="M42.4278118,21.019697 C42.4265562,21.0093434 42.4258028,20.9988636 42.424296,20.9886364 C42.4170133,20.9376263 42.4073448,20.8867424 42.3936583,20.8364899 C42.3935327,20.8359848 42.3932816,20.8354798 42.393156,20.8348485 C42.3803485,20.7878788 42.3640251,20.7415404 42.3455672,20.6957071 C42.3402935,20.6825758 42.3345175,20.6699495 42.3288671,20.6570707 C42.3143016,20.6239899 42.2981038,20.5914141 42.2805248,20.5593434 C42.2728654,20.5453283 42.2654571,20.5313131 42.2571699,20.5175505 C42.2527751,20.510101 42.2492593,20.502399 42.2446134,20.4949495 C42.2260299,20.4652778 42.2056885,20.4373737 42.1850959,20.4097222 C42.1812034,20.4045455 42.1780643,20.3991162 42.1741718,20.3940657 C42.1427808,20.3531566 42.1088784,20.3151515 42.0733437,20.2791667 C42.0666888,20.2723485 42.059406,20.2660354 42.0525,20.2594697 C42.0216112,20.2295455 41.9895923,20.2015152 41.9561922,20.1751263 C41.9476538,20.1684343 41.9393665,20.1617424 41.930577,20.155303 C41.8858761,20.1219697 41.839794,20.0909091 41.7917029,20.0640152 L23.2929374,9.49040404 L33.943932,2.74621212 L51.8000593,12.9522727 L44.2798857,17.7140152 C43.692998,18.0854798 43.5168313,18.8651515 43.8863671,19.4551768 C44.2557774,20.0453283 45.0310116,20.2224747 45.6178993,19.8508838 L54.9129247,13.965404 C55.2866041,13.7289141 55.5092297,13.3123737 55.4991845,12.8684343 C55.489265,12.4244949 55.248307,12.0186869 54.8643313,11.7992424 L34.531322,0.177272727 C34.1291394,-0.0527777778 33.633537,-0.0414141414 33.2417762,0.206439394 L20.1886103,8.47171717 C20.1859735,8.47335859 20.1832111,8.47512626 20.1805742,8.47676768 L13.6578837,12.6069444 C13.6548702,12.6088384 13.6518567,12.6107323 13.6489687,12.6126263 L0.586887698,20.8835859 C0.213208239,21.1200758 -0.00941732506,21.5366162 0.00062782167,21.9805556 C0.0105474041,22.4244949 0.251505361,22.830303 0.635481095,23.0497475 L20.968616,34.6717172 C21.1612317,34.7819444 21.3751933,34.8367424 21.5890293,34.8367424 C21.8217001,34.8367424 22.0539941,34.7717172 22.2580361,34.6425505 L31.5530615,28.7569444 C32.1399492,28.3854798 32.316116,27.6058081 31.9465801,27.0157828 C31.5772954,26.4256313 30.8018101,26.2483586 30.215048,26.6200758 L21.5560059,32.102904 L3.69987867,21.8965909 L14.3509989,15.1522727 L33.3953414,26.0376263 L33.3953414,40.4545455 C33.3953414,40.9143939 33.6438332,41.3377525 34.0441323,41.5599747 C34.2333578,41.6650253 34.4422968,41.7171717 34.6509848,41.7171717 C34.883781,41.7171717 35.1160751,41.6521465 35.3199915,41.5229798 L41.8510948,37.3875 C42.2162359,37.1563131 42.4377314,36.752904 42.4377314,36.3190657 L42.4377314,21.1675505 C42.4377314,21.160101 42.4364757,21.1530303 42.4362246,21.1455808 C42.4354712,21.1036616 42.4327088,21.0617424 42.4278118,21.019697 L42.4278118,21.019697 Z M35.9066281,38.1675505 L35.9066281,25.3031566 C35.9066281,24.8489899 35.6640378,24.4299242 35.2713981,24.2055556 L16.7618341,13.6258838 L20.8819766,11.0169192 L38.7379783,21.2231061 L37.1745767,22.2130051 C36.5876891,22.5844697 36.4115223,23.3641414 36.7810581,23.9541667 C37.0196304,24.3354798 37.4275889,24.5441919 37.8448392,24.5441919 C38.0733663,24.5441919 38.3049069,24.4814394 38.5125903,24.3498737 L39.9263191,23.454798 L39.9263191,35.6222222 L35.9066281,38.1675505 L35.9066281,38.1675505 Z" id="Shape"></path>
                        <path d="M53.5750367,16.8789141 L44.2800113,22.7643939 C43.6931236,23.1358586 43.5169568,23.9155303 43.8864927,24.5055556 C44.1250649,24.8868687 44.5330234,25.0955808 44.9502737,25.0955808 C45.1788008,25.0955808 45.4103414,25.0328283 45.6180248,24.9012626 L54.9130502,19.0157828 C55.4999379,18.6443182 55.6761047,17.8646465 55.3065688,17.2746212 C54.9371586,16.6844697 54.1617988,16.507197 53.5750367,16.8789141 L53.5750367,16.8789141 Z" id="Shape"></path>
                        <path d="M30.2149224,31.6704545 L21.5558804,37.1532828 L1.87630784,25.9049242 C1.27385017,25.5604798 0.506903217,25.772096 0.164238149,26.3786616 C-0.178426919,26.9848485 0.0323955982,27.7556818 0.63535553,28.1002525 L20.9684904,39.7222222 C21.1611061,39.8324495 21.3750677,39.8872475 21.5889038,39.8872475 C21.8215745,39.8872475 22.0538685,39.8222222 22.2579106,39.6930556 L31.5529359,33.8074495 C32.1398236,33.4359848 32.3159904,32.6563131 31.9464546,32.0662879 C31.5771699,31.4760101 30.8016845,31.2987374 30.2149224,31.6704545 L30.2149224,31.6704545 Z" id="Shape"></path>
                        <path d="M53.5750367,21.9294192 L44.2800113,27.814899 C43.6931236,28.1863636 43.5169568,28.9660354 43.8864927,29.5560606 C44.1250649,29.9373737 44.5330234,30.1460859 44.9502737,30.1460859 C45.1788008,30.1460859 45.4103414,30.0833333 45.6180248,29.9517677 L54.9130502,24.0662879 C55.4999379,23.6948232 55.6761047,22.9151515 55.3065688,22.3251263 C54.9371586,21.7348485 54.1617988,21.557702 53.5750367,21.9294192 L53.5750367,21.9294192 Z" id="Shape"></path>
                        <path d="M30.2149224,36.7209596 L21.5558804,42.2037879 L1.87630784,30.9554293 C1.27385017,30.6109848 0.506903217,30.822601 0.164238149,31.4291667 C-0.178426919,32.0353535 0.0323955982,32.8061869 0.63535553,33.1507576 L20.9684904,44.7727273 C21.1611061,44.8829545 21.3750677,44.9377525 21.5889038,44.9377525 C21.8215745,44.9377525 22.0538685,44.8727273 22.2579106,44.7435606 L31.5529359,38.8579545 C32.1398236,38.4864899 32.3159904,37.7068182 31.9464546,37.1167929 C31.5771699,36.5263889 30.8016845,36.3492424 30.2149224,36.7209596 L30.2149224,36.7209596 Z" id="Shape"></path>
                        <path d="M53.5750367,26.9799242 L44.2800113,32.865404 C43.6931236,33.2368687 43.5169568,34.0165404 43.8864927,34.6065657 C44.1250649,34.9878788 44.5330234,35.1965909 44.9502737,35.1965909 C45.1788008,35.1965909 45.4103414,35.1338384 45.6180248,35.0022727 L54.9130502,29.1167929 C55.4999379,28.7453283 55.6761047,27.9656566 55.3065688,27.3756313 C54.9371586,26.7854798 54.1617988,26.6083333 53.5750367,26.9799242 L53.5750367,26.9799242 Z" id="Shape"></path>
                        <path d="M30.2149224,41.7714646 L21.5558804,47.2542929 L1.87630784,36.0059343 C1.27385017,35.6614899 0.506903217,35.8731061 0.164238149,36.4796717 C-0.178426919,37.0858586 0.0323955982,37.8566919 0.63535553,38.2012626 L20.9684904,49.8232323 C21.1611061,49.9334596 21.3750677,49.9882576 21.5889038,49.9882576 C21.8215745,49.9882576 22.0538685,49.9232323 22.2579106,49.7940657 L31.5529359,43.9084596 C32.1398236,43.5369949 32.3159904,42.7573232 31.9464546,42.167298 C31.5771699,41.5770202 30.8016845,41.3997475 30.2149224,41.7714646 L30.2149224,41.7714646 Z" id="Shape"></path>
                    </g>
                </g>
            </g>
        </g>
    </g>
</svg>