<svg xmlns="http://www.w3.org/2000/svg" xmlns:xlink="http://www.w3.org/1999/xlink" version="1.1" id="Layer_1" x="0px" y="0px" viewBox="0 0 133 35" enable-background="new 0 0 133 35" xml:space="preserve"><g><g><path fill="#4F4C4D" d="M46 7.3c5.8 0 10.5 4.3 10.5 10.2c0 5.9-4.7 10.3-10.5 10.3c-5.8 0-10.5-4.3-10.5-10.3 C35.5 11.6 40.2 7.3 46 7.3z M46 24.5c3.7 0 6.7-2.9 6.7-7c0-4-3-6.9-6.7-6.9c-3.7 0-6.7 2.9-6.7 6.9C39.3 21.6 42.4 24.5 46 24.5 z"/><path fill="#4F4C4D" d="M77.6 15.1h0.8v-0.3c0-3.2-1.8-4.3-4.3-4.3c-3 0-5.4 1.9-5.4 1.9l-1.5-2.7c0 0 2.8-2.3 7.3-2.3 c4.9 0 7.7 2.7 7.7 7.6v12.3h-3.5v-1.8c0-0.9 0.1-1.5 0.1-1.5h-0.1c0 0-1.6 3.9-6.2 3.9c-3.4 0-6.6-2-6.6-5.9 C65.8 15.4 74.3 15.1 77.6 15.1z M73.3 24.8c3.2 0 5.2-3.3 5.2-6.2v-0.6h-1c-2.8 0-7.9 0.2-7.9 3.7C69.6 23.2 70.9 24.8 73.3 24.8 z"/><path fill="#4F4C4D" d="M85.7 7.8h3.4v1.7c0 0.8-0.1 1.4-0.1 1.4h0.1c0 0 1.7-3.5 6.6-3.5c5.2 0 8.6 4.2 8.6 10.2 c0 6.2-3.7 10.2-8.8 10.2c-4.3 0-6-3.2-6-3.2h-0.1c0 0 0.1 0.7 0.1 1.7V35h-3.7V7.8z M94.9 24.6c3.1 0 5.6-2.5 5.6-7 c0-4.2-2.3-7-5.5-7c-2.9 0-5.6 2-5.6 7C89.4 21.1 91.3 24.6 94.9 24.6z"/><path fill="#4F4C4D" d="M107.5 0.1h3.8v3.8h-3.8V0.1z M107.6 7.8h3.7v19.5h-3.7V7.8z"/><polygon fill="#4F4C4D" points="59.3,0.1 59.3,27.8 63.1,27.8 63.1,0.1"/><path fill="#4F4C4D" d="M125 7.3c4.9 0 7.3 2.9 7.3 2.9l-1.8 2.6c0 0-2.1-2.2-5.4-2.2c-3.9 0-6.8 2.9-6.8 6.9c0 4 2.9 7 6.9 7 c3.6 0 6-2.6 6-2.6l1.5 2.7c0 0-2.7 3.1-7.8 3.1c-6.1 0-10.4-4.4-10.4-10.2C114.5 11.8 118.8 7.3 125 7.3z"/></g><g><path fill="#4F4C4D" d="M26.3 11.8h-0.7v-1.4c0-0.2-0.2-0.4-0.4-0.4h-2.3c-0.2 0-0.4 0.2-0.4 0.4v1.4h-3.1v-0.7 c0-1-0.8-1.8-1.8-1.8h-6.7c-1 0-1.8 0.8-1.8 1.8v0.7H6.3v-0.9c0-0.3-0.2-0.5-0.5-0.5H5.6v-0.4c0-0.2-0.1-0.3-0.3-0.3H3.5 c-0.2 0-0.3 0.1-0.3 0.3v0.4H2.9c-0.3 0-0.5 0.2-0.5 0.5v0.9H2c-1 0-1.8 0.8-1.8 1.8V26c0 1 0.8 1.8 1.8 1.8h24.3 c1 0 1.8-0.8 1.8-1.8V13.6C28.1 12.6 27.3 11.8 26.3 11.8z M14.2 25.4c-3.1 0-5.6-2.5-5.6-5.6c0-3.1 2.5-5.6 5.6-5.6 c3.1 0 5.6 2.5 5.6 5.6C19.8 22.9 17.3 25.4 14.2 25.4z"/><path fill="#4F4C4D" d="M17.4 19.8c0 1.8-1.5 3.3-3.3 3.3c-1.8 0-3.3-1.5-3.3-3.3c0-1.8 1.5-3.3 3.3-3.3 C16 16.5 17.4 18 17.4 19.8z"/><path fill="#E9004C" d="M8.3 0H0.7C0.5 0 0.3 0.2 0.3 0.5v5.9c0 0.3 0.2 0.5 0.5 0.5h4.9l1.8 1.8l0-1.8h0.9c0.3 0 0.5-0.2 0.5-0.5 V0.5C8.8 0.2 8.6 0 8.3 0z M3 5.4H2.3V4.3H3V5.4z M4.2 5.4H3.6V3.5h0.7V5.4z M5.5 5.4H4.9V3h0.7V5.4z M6.8 5.4H6.1v-4h0.7V5.4z"/><g><rect x="23.3" y="3" fill="#00A8E1" width="0.9" height="0.9"/><path fill="#00A8E1" d="M27.6 0H20c-0.3 0-0.5 0.2-0.5 0.5v5.9c0 0.3 0.2 0.5 0.5 0.5h0.9l0 1.8l1.8-1.8h4.9 c0.3 0 0.5-0.2 0.5-0.5V0.5C28.1 0.3 27.9 0 27.6 0z M25.7 3h-0.8v0.9h0.8v0.6h-0.8v0.9h-0.6V4.5h-0.9v0.9h-0.6V4.5h-0.8V3.9h0.8 V3h-0.8V2.4h0.8V1.5h0.6v0.9h0.9V1.5h0.6v0.9h0.8V3z"/></g><path fill="#6CC04A" d="M18 0h-7.6c-0.3 0-0.5 0.2-0.5 0.5v5.9c0 0.3 0.2 0.5 0.5 0.5h2.9l0.9 1.8L15 6.9H18 c0.3 0 0.5-0.2 0.5-0.5V0.5C18.5 0.3 18.2 0 18 0z M17.1 2.9c-0.4 1.4-2.9 2.8-2.9 2.9v0l0 0l0 0v0c-0.1 0-2.6-1.5-2.9-2.9 c-0.4-1.7 1.6-2.7 2.9-1.2C15.5 0.3 17.5 1.3 17.1 2.9z"/></g></g></svg>