<?xml version="1.0" encoding="UTF-8" standalone="no"?>
<svg width="11px" height="11px" viewBox="0 0 11 11" version="1.1" xmlns="http://www.w3.org/2000/svg" xmlns:xlink="http://www.w3.org/1999/xlink" xmlns:sketch="http://www.bohemiancoding.com/sketch/ns">
    <!-- Generator: Sketch 3.4.4 (17249) - http://www.bohemiancoding.com/sketch -->
    <title>ico-clock</title>
    <desc>Created with Sketch.</desc>
    <defs></defs>
    <g id="Welcome" stroke="none" stroke-width="1" fill="none" fill-rule="evenodd" sketch:type="MSPage">
        <g id="homepage" sketch:type="MSArtboardGroup" transform="translate(-135.000000, -1175.000000)">
            <g id="contests-area" sketch:type="MSLayerGroup" transform="translate(120.000000, 1124.000000)">
                <rect id="Rectangle-12" stroke="#E1E1E1" fill="#FFFFFF" sketch:type="MSShapeGroup" x="0" y="0" width="1200" height="166" rx="4"></rect>
                <g id="clock104" transform="translate(15.000000, 51.000000)" fill="#7E7E7E" sketch:type="MSShapeGroup">
                    <g id="Capa_1">
                        <g id="Group">
                            <path d="M10.5609346,3.35897222 C9.9809902,2.00688889 8.99548366,1.02355719 7.63211275,0.442084967 C6.95068791,0.151465686 6.23678431,0.00301960784 5.49095915,0.00301960784 C4.7452598,0.00301960784 4.03662255,0.150063725 3.35595261,0.442084967 C2.00386928,1.02201144 1.0139951,2.00471405 0.433026144,3.35897222 C0.141903595,4.03744935 0,4.74826144 0,5.49396078 C0,6.23980392 0.141903595,6.95651144 0.433026144,7.63513235 C1.0139951,8.98939052 2.0039951,9.97798856 3.35595261,10.5580588 C4.03674837,10.8500801 4.74524183,10.9969804 5.49095915,10.9969804 C6.23667647,10.9969804 6.95068791,10.8485343 7.6320049,10.5580588 C8.99537582,9.97656863 9.98088235,8.98708987 10.5609526,7.63513235 C10.8529559,6.9543366 11,6.23980392 11,5.49396078 C11,4.74826144 10.8530817,4.03975 10.5609346,3.35897222 L10.5609346,3.35897222 Z M9.68294771,7.92382843 C9.25119771,8.66426144 8.65971405,9.25166503 7.91476961,9.68596732 C7.1743366,10.1177173 6.36305065,10.3354526 5.49108497,10.3354526 C4.83557843,10.3354526 4.21008824,10.2092042 3.61461438,9.95054248 C3.0191585,9.69200654 2.50503431,9.35212092 2.07495588,8.9221683 C1.64487745,8.49208987 1.30256536,7.97295098 1.04659967,7.37647059 C0.791388889,6.78216503 0.667710784,6.14961111 0.667710784,5.49397876 C0.667710784,4.62188725 0.881977124,3.81471732 1.31130065,3.07633333 C1.74215196,2.33525327 2.33376144,1.74722059 3.07343954,1.31417647 C3.81299183,0.881150327 4.61901144,0.664565359 5.49095915,0.664565359 C6.36305065,0.664565359 7.17419281,0.882426471 7.91464379,1.31417647 C8.65958824,1.74849673 9.24979575,2.33651144 9.6828219,3.07631536 C10.115848,3.81599346 10.3323072,4.62188725 10.3323072,5.49396078 C10.3323072,6.36607026 10.117268,7.1787402 9.68294771,7.92382843 L9.68294771,7.92382843 Z" id="Shape"></path>
                            <path d="M5.83981373,5.44586275 L5.83981373,2.33047222 C5.83981373,2.14404739 5.67738399,1.9936781 5.49094118,1.9936781 C5.3165768,1.9936781 5.1601683,2.14404739 5.1601683,2.33047222 L5.1601683,5.49396078 C5.1601683,5.5 5.17222876,5.52412092 5.17222876,5.54209477 C5.1601683,5.65036928 5.19032843,5.74058007 5.26243954,5.81281699 L7.06077778,7.61102941 C7.18111275,7.73136438 7.40359314,7.73136438 7.52383824,7.61102941 C7.66212908,7.47272059 7.65303431,7.27204248 7.52383824,7.14192974 L5.83981373,5.44586275 L5.83981373,5.44586275 Z" id="Shape"></path>
                        </g>
                    </g>
                </g>
            </g>
        </g>
    </g>
</svg>