<?xml version="1.0" encoding="UTF-8" standalone="no"?>
<svg width="58px" height="55px" viewBox="0 0 58 55" version="1.1" xmlns="http://www.w3.org/2000/svg" xmlns:xlink="http://www.w3.org/1999/xlink" xmlns:sketch="http://www.bohemiancoding.com/sketch/ns">
    <!-- Generator: Sketch 3.4.4 (17249) - http://www.bohemiancoding.com/sketch -->
    <title>find contest</title>
    <desc>Created with Sketch.</desc>
    <defs></defs>
    <g id="Welcome" stroke="none" stroke-width="1" fill="none" fill-rule="evenodd" sketch:type="MSPage">
        <g id="homepage" sketch:type="MSArtboardGroup" transform="translate(-225.000000, -858.000000)" fill="#FF5E00">
            <g id="how-it-works" sketch:type="MSLayerGroup" transform="translate(116.000000, 750.000000)">
                <g id="find-contest" transform="translate(109.000000, 108.000000)" sketch:type="MSShapeGroup">
                    <path d="M6.01764706,20.4851891 C6.01764706,16.0278782 7.75338235,11.837479 10.9051366,8.68572479 C11.0969433,8.49391807 11.0969433,8.18298319 10.9051366,7.99117647 C10.7133298,7.79948529 10.402395,7.79948529 10.2105882,7.99117647 C6.87338235,11.3284979 5.0355042,15.7655882 5.0355042,20.4851891 C5.0355042,25.2047899 6.87338235,29.6418803 10.2107038,32.9790861 C10.3066071,33.0749895 10.4322059,33.1229412 10.5579202,33.1229412 C10.6836345,33.1229412 10.8092332,33.0749895 10.9051366,32.9790861 C11.0969433,32.7872794 11.0969433,32.4763445 10.9051366,32.2845378 C7.75338235,29.1328992 6.01764706,24.9423845 6.01764706,20.4851891 L6.01764706,20.4851891 Z" id="Shape"></path>
                    <path d="M22.7047164,5.92278361 C18.8149685,5.92278361 15.1580462,7.43759454 12.407584,10.1880567 C9.65712185,12.9385189 8.14231092,16.5955567 8.14231092,20.4851891 C8.14231092,24.374937 9.6570063,28.0318592 12.407584,30.7823214 C15.1580462,33.5327836 18.815084,35.047479 22.7047164,35.047479 C26.5943487,35.047479 30.251271,33.5327836 33.0017332,30.7823214 C35.7523109,28.0318592 37.2670063,24.3748214 37.2670063,20.4851891 C37.2670063,16.5955567 35.7523109,12.9385189 33.0017332,10.1880567 C30.251271,7.43759454 26.5944643,5.92278361 22.7047164,5.92278361 L22.7047164,5.92278361 Z M30.6978571,9.50390756 L14.7115756,9.50390756 C17.0191492,7.81670168 19.7916807,6.90492647 22.7047164,6.90492647 C25.6176366,6.90492647 28.3901681,7.81670168 30.6978571,9.50390756 L30.6978571,9.50390756 Z M13.1021324,10.8824895 C13.2377836,10.7468382 13.3763235,10.6151155 13.5165966,10.4859349 L31.8929517,10.4859349 C32.0332248,10.6151155 32.1717647,10.7468382 32.307416,10.8824895 C34.3946429,12.9697164 35.6583718,15.5729727 36.100105,18.2853046 L33.2195378,18.2853046 L33.2195378,16.8120903 C33.2195378,15.9042437 32.4808508,15.1655567 31.5730042,15.1655567 L12.3923319,15.1655567 C11.4844853,15.1655567 10.7457983,15.9042437 10.7457983,16.8120903 L10.7457983,18.2853046 L9.30944328,18.2853046 C9.75106092,15.5730882 11.0149055,12.9697164 13.1021324,10.8824895 L13.1021324,10.8824895 Z M32.237395,20.7407773 C32.237395,21.1071744 31.9394013,21.4051681 31.5730042,21.4051681 L12.3923319,21.4051681 C12.0260504,21.4051681 11.7279412,21.1071744 11.7279412,20.7407773 L11.7279412,16.8122059 C11.7279412,16.4459244 12.0260504,16.1478151 12.3923319,16.1478151 L31.5730042,16.1478151 C31.9394013,16.1478151 32.237395,16.4459244 32.237395,16.8122059 L32.237395,20.7407773 L32.237395,20.7407773 Z M32.3073004,30.0877731 C29.7422899,32.6527836 26.3320588,34.0653361 22.7047164,34.0653361 C19.0772584,34.0653361 15.6670273,32.6527836 13.1021324,30.0877731 C12.4667437,29.4522689 11.9083088,28.7685819 11.4254412,28.0489601 L33.9842227,28.0489601 C33.5012395,28.7686975 32.9428046,29.4523845 32.3073004,30.0877731 L32.3073004,30.0877731 Z M34.5847164,27.0669328 L10.8248319,27.0669328 C9.4937395,24.6620693 8.94766807,21.9362185 9.18580882,19.267563 L10.7457983,19.267563 L10.7457983,20.7407773 C10.7457983,21.6487395 11.4844853,22.3873109 12.3923319,22.3873109 L31.5730042,22.3873109 C32.4808508,22.3873109 33.2195378,21.6487395 33.2195378,20.7407773 L33.2195378,19.267563 L36.2236239,19.267563 C36.4617647,21.9361029 35.9156933,24.6620693 34.5847164,27.0669328 L34.5847164,27.0669328 Z" id="Shape"></path>
                    <path d="M57.3686975,18.7764916 C57.3686975,18.5053046 57.1489286,18.2854202 56.8776261,18.2854202 L43.0088445,18.2854202 C42.7145483,15.5206303 41.8678256,12.877395 40.5209034,10.4860504 L56.8776261,10.4860504 C57.1489286,10.4860504 57.3686975,10.266166 57.3686975,9.99497899 C57.3686975,9.72379202 57.1489286,9.50390756 56.8776261,9.50390756 L39.9301155,9.50390756 C39.1386239,8.26767857 38.2080147,7.10771008 37.145105,6.04480042 C33.2879412,2.18763655 28.1595378,0.0633193277 22.7047164,0.0633193277 C17.249895,0.0633193277 12.1214916,2.18752101 8.26432773,6.04468487 C7.19367647,7.11533613 6.26838235,8.27692227 5.48567227,9.50379202 L0.491071429,9.50379202 C0.219884454,9.50379202 0,9.72367647 0,9.99486345 C0,10.2660504 0.219884454,10.4859349 0.491071429,10.4859349 L4.8965021,10.4859349 C3.53005252,12.9215336 2.70227941,15.5796744 2.41168067,18.2853046 L0.491071429,18.2853046 C0.219884454,18.2853046 0,18.5051891 0,18.7763761 C0,19.047563 0.219884454,19.2674475 0.491071429,19.2674475 L2.32987395,19.2674475 C2.17423319,21.8958929 2.52283613,24.5484874 3.37591387,27.0668172 L0.491071429,27.0668172 C0.219884454,27.0668172 0,27.2867017 0,27.5578887 C0,27.8290756 0.219884454,28.0489601 0.491071429,28.0489601 L3.73676471,28.0489601 C4.73173319,30.5543487 6.24018908,32.9014391 8.26432773,34.9255777 C12.1214916,38.7827416 17.249895,40.9069433 22.7048319,40.9069433 C26.1140231,40.9069433 29.3956513,40.0772059 32.3192017,38.5132878 L48.3175,54.5129727 C48.6384874,54.8339601 49.0601155,54.9944538 49.4817437,54.9944538 C49.9032563,54.9944538 50.3251155,54.8339601 50.6459874,54.5129727 L56.7325,48.4264601 C57.0434349,48.1155252 57.2147899,47.7019853 57.2147899,47.2622164 C57.2147899,46.8224475 57.0435504,46.4089076 56.7325,46.0978571 L40.7332773,30.09875 C41.0891597,29.4333193 41.4056408,28.7488235 41.6844538,28.0490756 L56.8776261,28.0490756 C57.1489286,28.0490756 57.3686975,27.8291912 57.3686975,27.5580042 C57.3686975,27.2868172 57.1489286,27.0669328 56.8776261,27.0669328 L42.0465756,27.0669328 C42.7562605,24.9751996 43.1265861,22.758792 43.1265861,20.4851891 C43.1265861,20.0773109 43.1132983,19.6715126 43.0897269,19.267563 L56.8776261,19.267563 C57.1489286,19.267563 57.3686975,19.0476786 57.3686975,18.7764916 L57.3686975,18.7764916 Z M56.2325315,47.2622164 C56.2325315,47.4396954 56.1634349,47.6064286 56.0379517,47.7319118 L49.9514391,53.8184244 C49.6923845,54.077479 49.2707563,54.077479 49.0117017,53.8185399 L47.8707983,52.677521 L54.8969328,45.6513866 L56.0379517,46.7924055 C56.1634349,46.9178887 56.2325315,47.0847374 56.2325315,47.2622164 L56.2325315,47.2622164 Z M54.2025,44.9568382 L49.3153571,49.8439811 L46.3634979,46.8921218 C46.1716912,46.7004307 45.8606408,46.7004307 45.6690651,46.8921218 C45.4772584,47.0839286 45.4772584,47.3948634 45.6690651,47.5866702 L48.6208088,50.5385294 L47.1763655,51.9830882 L33.2047479,38.010084 C34.6222689,37.1573529 35.9452731,36.1254097 37.145105,34.9255777 C37.5431618,34.527521 37.9218067,34.115021 38.2826576,33.6908508 L49.8866176,45.2948109 C49.9824055,45.3907143 50.1081197,45.438666 50.233834,45.438666 C50.3595483,45.438666 50.4852626,45.3907143 50.5810504,45.2948109 C50.7728571,45.1030042 50.7728571,44.7920693 50.5810504,44.6002626 L38.9041807,32.9237395 C39.3849685,32.3002521 39.8278571,31.6531933 40.2301891,30.9844118 L54.2025,44.9568382 L54.2025,44.9568382 Z M40.9042857,27.3429727 C40.8903046,27.3717437 40.8789811,27.4017857 40.8707773,27.4334454 C39.9078151,29.9539706 38.4157668,32.2659349 36.4506723,34.231145 C32.7789601,37.9028571 27.8972479,39.924916 22.7047164,39.924916 C17.5121849,39.924916 12.6303571,37.9028571 8.9587605,34.231145 C1.37915966,26.6516597 1.37915966,14.318834 8.9587605,6.73923319 C12.6303571,3.06752101 17.5120693,1.04546218 22.7046008,1.04546218 C27.8971324,1.04546218 32.7788445,3.06763655 36.4505567,6.73923319 C40.1221534,10.4108298 42.1442122,15.2926576 42.1442122,20.4850735 C42.1443277,22.8654412 41.7183088,25.1799475 40.9042857,27.3429727 L40.9042857,27.3429727 Z" id="Shape"></path>
                </g>
            </g>
        </g>
    </g>
</svg>