<?xml version="1.0" encoding="UTF-8" standalone="no"?>
<svg width="28px" height="20px" viewBox="0 0 28 20" version="1.1" xmlns="http://www.w3.org/2000/svg" xmlns:xlink="http://www.w3.org/1999/xlink" xmlns:sketch="http://www.bohemiancoding.com/sketch/ns">
    <!-- Generator: Sketch 3.4.4 (17249) - http://www.bohemiancoding.com/sketch -->
    <title>ico-mail</title>
    <desc>Created with Sketch.</desc>
    <defs></defs>
    <g id="Welcome" stroke="none" stroke-width="1" fill="none" fill-rule="evenodd" sketch:type="MSPage">
        <g id="homepage" sketch:type="MSArtboardGroup" transform="translate(-1292.000000, -3909.000000)" fill="#8E8E8E">
            <g id="footer" sketch:type="MSLayerGroup" transform="translate(0.000000, 3859.000000)">
                <g id="email5" transform="translate(1292.000000, 50.000000)" sketch:type="MSShapeGroup">
                    <g id="Capa_1">
                        <g id="Group">
                            <path d="M13.8470934,14 L10.4209269,10.968 L0.625097361,19.458 C0.981165478,19.792 1.46185744,20 1.9920033,20 L25.7021836,20 C26.2303513,20 26.7090651,19.792 27.0631551,19.458 L17.27326,10.968 L13.8470934,14 L13.8470934,14 Z" id="Shape"></path>
                            <path d="M27.0690895,0.542 C26.7130214,0.206 26.2343076,0 25.7021836,0 L1.9920033,0 C1.46383559,0 0.985121791,0.208 0.629053674,0.546 L13.8470934,12 L27.0690895,0.542 L27.0690895,0.542 Z" id="Shape"></path>
                            <path d="M0,1.756 L0,18.372 L9.56042894,10.158 L0,1.756 Z" id="Shape"></path>
                            <path d="M18.1337579,10.158 L27.6941869,18.372 L27.6941869,1.75 L18.1337579,10.158 Z" id="Shape"></path>
                        </g>
                    </g>
                </g>
            </g>
        </g>
    </g>
</svg>