<?xml version="1.0" encoding="UTF-8" standalone="no"?>
<svg width="31px" height="27px" viewBox="0 0 31 27" version="1.1" xmlns="http://www.w3.org/2000/svg" xmlns:xlink="http://www.w3.org/1999/xlink" xmlns:sketch="http://www.bohemiancoding.com/sketch/ns">
    <!-- Generator: Sketch 3.4.4 (17249) - http://www.bohemiancoding.com/sketch -->
    <title>ico-cup</title>
    <desc>Created with Sketch.</desc>
    <defs></defs>
    <g id="Page-1" stroke="none" stroke-width="1" fill="none" fill-rule="evenodd" sketch:type="MSPage">
        <g id="trophy36" sketch:type="MSLayerGroup" fill="#FFFFFF">
            <path d="M24.791,2.451 C24.811,1.503 24.775,0.904 24.775,0.904 L15.511,0.897 L15.511,0.897 L15.464,0.897 L15.417,0.897 L15.417,0.897 L6.152,0.904 C6.152,0.904 6.117,1.503 6.137,2.451 L0,2.451 L0,3.463 C0,3.694 0.039,9.143 3.402,12.128 C4.805,13.373 6.555,13.999 8.618,14 C8.93,14 9.251,13.979 9.576,13.951 C10.748,15.556 12.102,16.68 13.625,17.24 L13.625,21.685 L9.154,21.685 L9.154,24.469 L7.677,24.469 L7.677,26.03 L15.417,26.03 L15.511,26.03 L23.251,26.03 L23.251,24.47 L21.773,24.47 L21.773,21.686 L17.302,21.686 L17.302,17.241 C18.824,16.681 20.179,15.557 21.351,13.952 C21.678,13.98 21.999,14 22.311,14 C24.373,13.998 26.123,13.373 27.526,12.127 C30.889,9.142 30.928,3.693 30.928,3.462 L30.928,2.451 L24.791,2.451 L24.791,2.451 Z M4.752,10.619 C2.831,8.919 2.263,6.009 2.095,4.475 L6.253,4.475 C6.429,6.386 6.843,8.767 7.798,10.86 C7.973,11.244 8.157,11.608 8.345,11.964 C6.912,11.909 5.706,11.462 4.752,10.619 L4.752,10.619 Z M26.176,10.619 C25.223,11.463 24.016,11.909 22.584,11.964 C22.772,11.609 22.956,11.244 23.131,10.86 C24.086,8.767 24.5,6.386 24.675,4.475 L28.833,4.475 C28.665,6.008 28.098,8.918 26.176,10.619 L26.176,10.619 Z" id="Shape" sketch:type="MSShapeGroup"></path>
        </g>
    </g>
</svg>