<?xml version="1.0" encoding="UTF-8" standalone="no"?>
<svg width="39px" height="55px" viewBox="0 0 39 55" version="1.1" xmlns="http://www.w3.org/2000/svg" xmlns:xlink="http://www.w3.org/1999/xlink" xmlns:sketch="http://www.bohemiancoding.com/sketch/ns">
    <!-- Generator: Sketch 3.4.4 (17249) - http://www.bohemiancoding.com/sketch -->
    <title>icon-ad</title>
    <desc>Created with Sketch.</desc>
    <defs></defs>
    <g id="Welcome" stroke="none" stroke-width="1" fill="none" fill-rule="evenodd" sketch:type="MSPage">
        <g id="homepage" sketch:type="MSArtboardGroup" transform="translate(-542.000000, -858.000000)" fill="#FF5E00">
            <g id="how-it-works" sketch:type="MSLayerGroup" transform="translate(116.000000, 750.000000)">
                <g id="submit-ad-icon" transform="translate(426.000000, 108.000000)" sketch:type="MSShapeGroup">
                    <path d="M38.2688664,10.5283806 C38.2637449,10.520253 38.2569534,10.5115688 38.2469332,10.5015486 L27.8837753,0.13861336 C27.7950405,0.0498785425 27.6745749,0 27.5490992,0 L1.67850202,0 C0.809635628,0 0.102874494,0.706761134 0.102874494,1.57540486 L0.102874494,53.390415 C0.102874494,54.2592814 0.809746964,54.9660425 1.67850202,54.9660425 L36.8098077,54.9660425 C37.6786741,54.9660425 38.3854352,54.25917 38.3854352,53.390415 L38.3854352,10.8361134 C38.3855466,10.7223279 38.3426822,10.613998 38.2688664,10.5283806 L38.2688664,10.5283806 Z M28.0222773,1.61559717 L32.3961134,5.98932186 L36.7698381,10.3629352 L28.6515486,10.3629352 C28.3045142,10.3629352 28.0222773,10.0806984 28.0222773,9.73366397 L28.0222773,1.61559717 L28.0222773,1.61559717 Z M36.8098077,54.0196862 L1.67850202,54.0196862 C1.33146761,54.0196862 1.04923077,53.7373381 1.04923077,53.390415 L1.04923077,47.5883603 L9.446417,47.5883603 C9.70783401,47.5883603 9.91959514,47.3765992 9.91959514,47.1151822 C9.91959514,46.8537652 9.70783401,46.642004 9.446417,46.642004 L1.04923077,46.642004 L1.04923077,41.1308704 L22.8067409,41.1308704 C23.0681579,41.1308704 23.279919,40.9191093 23.279919,40.6576923 C23.279919,40.3962753 23.0681579,40.1845142 22.8067409,40.1845142 L1.04923077,40.1845142 L1.04923077,5.72601215 L12.786498,5.72601215 C13.047915,5.72601215 13.2596761,5.51425101 13.2596761,5.25283401 C13.2596761,4.991417 13.047915,4.77965587 12.786498,4.77965587 L1.04923077,4.77965587 L1.04923077,1.57540486 C1.04923077,1.22859312 1.33146761,0.946356275 1.67850202,0.946356275 L27.0759211,0.946356275 L27.0759211,9.73366397 C27.0759211,10.6025304 27.7827935,11.3092915 28.6515486,11.3092915 L37.4390789,11.3092915 L37.4390789,48.8687247 L21.0253644,48.8687247 C20.7639474,48.8687247 20.5521862,49.0804858 20.5521862,49.3419028 C20.5521862,49.6033198 20.7639474,49.815081 21.0253644,49.815081 L37.4391903,49.815081 L37.4391903,53.390415 C37.4391903,53.7373381 37.1568421,54.0196862 36.8098077,54.0196862 L36.8098077,54.0196862 Z" id="Shape"></path>
                    <path d="M27.5847267,28.6097976 L30.7539069,25.4406174 C31.5271356,24.6675 31.5271356,23.4092915 30.7539069,22.6361741 L20.6465992,12.5289777 C20.2720648,12.154332 19.7740587,11.9480263 19.2443219,11.9480263 C18.714585,11.9480263 18.2166903,12.154332 17.8420445,12.5289777 L7.73451417,22.6361741 C6.96128543,23.4092915 6.96128543,24.6675 7.73451417,25.4406174 L10.9041397,28.6102429 C10.9928745,28.6989777 11.1132287,28.7488563 11.2387045,28.7488563 C11.3641802,28.7488563 11.4845344,28.6989777 11.5732692,28.6102429 L15.7512652,24.4323583 L15.7510425,34.6057996 C15.7510425,35.6993421 16.6406174,36.5890283 17.7342713,36.5890283 L20.7542611,36.5890283 C21.8476923,36.5890283 22.7373785,35.6994534 22.7373785,34.6057996 L22.7374899,24.4316903 L26.9157085,28.6097976 C27.1001923,28.7946154 27.4001316,28.7946154 27.5847267,28.6097976 L27.5847267,28.6097976 Z M22.5987652,22.9547065 C22.4634919,22.8193219 22.2598583,22.7789069 22.083168,22.8520547 C21.9062551,22.9253138 21.7910223,23.0978846 21.7910223,23.2892713 L21.7909109,34.6057996 C21.7909109,35.1775101 21.3258603,35.6426721 20.7541498,35.6426721 L17.7341599,35.6426721 C17.1624494,35.6426721 16.6972874,35.1775101 16.6972874,34.6057996 L16.6975101,23.2899393 C16.6975101,23.0985526 16.5822773,22.9259818 16.4054757,22.8527227 C16.346913,22.8284514 16.2854555,22.8167611 16.2244433,22.8167611 C16.1013057,22.8167611 15.9802834,22.8648583 15.8897672,22.9553745 L11.2385931,27.6064372 L8.40353239,24.7714879 C7.99927126,24.3672267 7.99927126,23.7094534 8.40353239,23.3051923 L18.5110628,13.197996 C18.7070142,13.0021559 18.9673178,12.8942713 19.2442105,12.8942713 C19.5211032,12.8942713 19.7814069,13.0021559 19.9773583,13.197996 L30.084666,23.3051923 C30.4889271,23.7094534 30.4889271,24.3672267 30.084666,24.7714879 L27.2500506,27.6059919 L22.5987652,22.9547065 L22.5987652,22.9547065 Z" id="Shape"></path>
                </g>
            </g>
        </g>
    </g>
</svg>