<?xml version="1.0" encoding="UTF-8" standalone="no"?>
<svg width="61px" height="55px" viewBox="0 0 61 55" version="1.1" xmlns="http://www.w3.org/2000/svg" xmlns:xlink="http://www.w3.org/1999/xlink" xmlns:sketch="http://www.bohemiancoding.com/sketch/ns">
    <!-- Generator: Sketch 3.4.4 (17249) - http://www.bohemiancoding.com/sketch -->
    <title>icon-money</title>
    <desc>Created with Sketch.</desc>
    <defs></defs>
    <g id="Welcome" stroke="none" stroke-width="1" fill="none" fill-rule="evenodd" sketch:type="MSPage">
        <g id="homepage" sketch:type="MSArtboardGroup" transform="translate(-840.000000, -858.000000)" fill="#FF5E00">
            <g id="how-it-works" sketch:type="MSLayerGroup" transform="translate(116.000000, 750.000000)">
                <g id="reward-icon" transform="translate(724.000000, 108.000000)" sketch:type="MSShapeGroup">
                    <path d="M57.3797394,0.106002203 L2.14023495,0.106002203 C1.05477239,0.106002203 0.171622614,0.989273128 0.171622614,2.07461454 L0.171622614,48.5922577 C0.171622614,49.6777203 1.05477239,50.56087 2.14023495,50.56087 L23.5887812,50.56087 L23.5887812,54.0407709 C23.5887812,54.6652753 23.9016997,54.8598348 24.0883847,54.9201652 C24.2750698,54.9803744 24.6426248,55.0060573 25.0083627,54.4994273 L29.6905103,48.0124559 C29.7256424,47.9637555 29.7542327,47.9489758 29.7587151,47.947522 C29.7658627,47.9489758 29.794453,47.9637555 29.8295852,48.0124559 L34.5118539,54.4995485 C34.7732856,54.8614097 35.0355653,54.951663 35.2320631,54.951663 C35.3104442,54.951663 35.3784068,54.9372467 35.4317107,54.9200441 C35.6182746,54.8597137 35.9311931,54.6652753 35.9311931,54.0406498 L35.9311931,50.5607489 L57.3797394,50.5607489 C58.4652019,50.5607489 59.3483517,49.6775991 59.3483517,48.5921366 L59.3483517,2.07461454 C59.3483517,0.989273128 58.4652019,0.106002203 57.3797394,0.106002203 L57.3797394,0.106002203 Z M25.3432085,40.8709361 C25.2121292,40.8709361 25.0948605,40.8534912 24.9847394,40.8178744 C24.3343098,40.6065969 23.886072,39.7887445 23.4114244,38.9226762 C22.9950477,38.1629736 22.5644971,37.377467 21.9226689,36.9104515 C21.2718759,36.4368943 20.384486,36.2670485 19.5262922,36.1027753 C18.5640345,35.9186344 17.6552019,35.7446696 17.2606314,35.2025441 C16.8729662,34.6697467 16.986116,33.7578855 17.1059288,32.7925991 C17.2141116,31.9202313 17.3260499,31.018304 17.074431,30.2430947 C16.8339574,29.5022907 16.2270191,28.8584031 15.6401909,28.235837 C14.9866116,27.5424009 14.3109838,26.8254626 14.3109838,26.1210022 C14.3109838,25.4164207 14.9867327,24.6994824 15.640312,24.0060463 C16.2271402,23.383359 16.8339574,22.7395925 17.074431,21.9989097 C17.3260499,21.2238216 17.2141116,20.3217731 17.1059288,19.4494053 C16.986116,18.4841189 16.8730874,17.5723789 17.2607526,17.0395815 C17.6552019,16.4974559 18.5640345,16.3234912 19.5262922,16.1392291 C20.384486,15.9749559 21.2718759,15.8051101 21.92279,15.3314317 C22.5643759,14.8644163 22.9949266,14.0789097 23.4113032,13.3193282 C23.8858297,12.4535022 24.3341887,11.6355286 24.9847394,11.4242511 C25.0948605,11.3885132 25.2121292,11.3711894 25.3432085,11.3711894 C25.9022944,11.3711894 26.574409,11.685804 27.2857746,12.0188326 C28.0922394,12.3963216 28.9262041,12.786652 29.7598054,12.786652 C30.5934068,12.786652 31.4273715,12.3963216 32.2338363,12.0188326 C32.9454442,11.685804 33.6174376,11.3711894 34.1765235,11.3711894 C34.3076028,11.3711894 34.4248715,11.3886344 34.5348715,11.4242511 C35.1854222,11.6355286 35.6336601,12.4533811 36.1083076,13.3193282 C36.5246843,14.0790308 36.9552349,14.8645374 37.596942,15.3315529 C38.2477349,15.8051101 39.135246,15.9750771 39.9934398,16.1393502 C40.9555764,16.3234912 41.864409,16.4974559 42.2589794,17.0397026 C42.6466446,17.5723789 42.533616,18.4842401 42.4138032,19.4495264 C42.3056204,20.3217731 42.1936821,21.2238216 42.445301,21.9989097 C42.6857746,22.7395925 43.2927129,23.3834802 43.8795411,24.0060463 C44.5331204,24.6994824 45.2088693,25.4165419 45.2088693,26.1210022 C45.2088693,26.8257048 44.5329993,27.5427643 43.87942,28.2362004 C43.2927129,28.8587665 42.6858957,29.502533 42.445301,30.2430947 C42.1936821,31.0181828 42.3056204,31.9202313 42.4139244,32.792478 C42.5337372,33.7578855 42.6468869,34.6697467 42.2591006,35.2025441 C41.8646512,35.7446696 40.9558186,35.9186344 39.9936821,36.1027753 C39.1353671,36.2670485 38.2478561,36.4370154 37.5970631,36.9105727 C36.9553561,37.3775881 36.5248054,38.1630947 36.1084288,38.9226762 C35.6337812,39.7886233 35.1854222,40.6064758 34.5349927,40.8178744 C34.4248715,40.8536123 34.3076028,40.8709361 34.1765235,40.8709361 C33.6174376,40.8709361 32.9454442,40.5563216 32.2339574,40.223293 C31.4274927,39.845804 30.5935279,39.4554736 29.7598054,39.4554736 C28.9262041,39.4554736 28.0923605,39.845804 27.2858957,40.223293 C26.574409,40.5563216 25.9022944,40.8709361 25.3432085,40.8709361 L25.3432085,40.8709361 Z M35.9311931,41.0709471 C36.3583517,40.6067181 36.688594,40.0069273 37.0115675,39.4175551 C37.3735499,38.7573128 37.747768,38.0744163 38.2031535,37.7430837 C38.6678671,37.404967 39.44029,37.2570485 40.1873935,37.1140969 C41.303627,36.9003965 42.4580213,36.6795485 43.0918539,35.8085132 C43.7189023,34.9468062 43.5751028,33.7870815 43.4359068,32.6657599 C43.3415345,31.9052093 43.2440125,31.1184912 43.4248825,30.5612225 C43.5940015,30.0405396 44.0967548,29.5072577 44.6289464,28.9425991 C45.4203891,28.1029405 46.2387261,27.2346916 46.2387261,26.1211233 C46.2387261,25.0079185 45.4203891,24.1396696 44.6290675,23.2998899 C44.0967548,22.7352313 43.5940015,22.2018282 43.4248825,21.6810242 C43.2438913,21.1235132 43.3415345,20.3370374 43.4359068,19.5764868 C43.5751028,18.4551652 43.7189023,17.2956828 43.0918539,16.4339758 C42.4579001,15.5628194 41.3035059,15.3418502 40.1872724,15.1282709 C39.4401689,14.9851982 38.667746,14.8374009 38.2031535,14.4992841 C37.7476468,14.1678304 37.3734288,13.4850551 37.0115675,12.8246916 C36.4613253,11.8208811 35.8923054,10.7827863 34.8531204,10.4452753 C34.6417217,10.3765859 34.4142107,10.3418172 34.1767658,10.3418172 C33.388594,10.3418172 32.5797063,10.7203965 31.7975918,11.0864978 C31.0930103,11.4162555 30.3645631,11.7571586 29.7600477,11.7571586 C29.1555323,11.7571586 28.4270852,11.4162555 27.7226248,11.0864978 C26.9403891,10.7203965 26.1316226,10.3418172 25.3434508,10.3418172 C25.1060059,10.3418172 24.8783737,10.3765859 24.666975,10.4452753 C23.62779,10.7825441 23.0588913,11.8207599 22.5085279,12.8248128 C22.1466667,13.4850551 21.7724486,14.1678304 21.3170631,14.4992841 C20.8524706,14.8374009 20.0799266,14.9851982 19.3329442,15.1281498 C18.2165896,15.3418502 17.0623164,15.5628194 16.4283627,16.4338546 C15.8013142,17.2955617 15.9451138,18.4551652 16.0843098,19.5763656 C16.1786821,20.3370374 16.2763253,21.1235132 16.0952129,21.6810242 C15.926094,22.2018282 15.4234618,22.7352313 14.891149,23.2998899 C14.0998275,24.1395485 13.2814905,25.0077974 13.2814905,26.1211233 C13.2814905,27.2344493 14.0997063,28.1025771 14.8910279,28.9422357 C15.4233407,29.5068943 15.926094,30.0402974 16.0952129,30.5612225 C16.2762041,31.1187335 16.1785609,31.9052093 16.0843098,32.6658811 C15.9452349,33.7872026 15.8013142,34.946685 16.4282416,35.8083921 C17.0621953,36.6795485 18.2165896,36.9005176 19.3329442,37.1140969 C20.0800477,37.2571696 20.8524706,37.4048458 21.3170631,37.7429626 C21.7724486,38.0742952 22.1467878,38.7571916 22.508649,39.4175551 C22.8316226,40.0068062 23.1618649,40.6067181 23.5889023,41.0709471 L23.5889023,45.5728304 L1.2013583,45.5728304 L1.2013583,13.8948899 L11.1768319,13.8948899 C11.4611601,13.8948899 11.6916997,13.6644714 11.6916997,13.380022 C11.6916997,13.0955727 11.4611601,12.8651542 11.1768319,12.8651542 L1.2013583,12.8651542 L1.2013583,8.19948238 L58.318616,8.19948238 L58.318616,40.8497357 L46.4301358,40.8497357 C46.1458076,40.8497357 45.915268,41.0801542 45.915268,41.3646035 C45.915268,41.6490529 46.1458076,41.8794714 46.4301358,41.8794714 L58.318616,41.8794714 L58.318616,45.5728304 L35.9311931,45.5728304 L35.9311931,41.0709471 L35.9311931,41.0709471 Z M2.14023495,1.13573789 L57.3797394,1.13573789 C57.8973935,1.13573789 58.318616,1.55696035 58.318616,2.07461454 L58.318616,3.89882159 L20.7777239,3.89882159 C20.4933957,3.89882159 20.2628561,4.12924009 20.2628561,4.41368943 C20.2628561,4.69813877 20.4933957,4.92855727 20.7777239,4.92855727 L58.318616,4.92855727 L58.318616,7.1697467 L1.2013583,7.1697467 L1.2013583,2.07461454 C1.2013583,1.55696035 1.62258076,1.13573789 2.14023495,1.13573789 L2.14023495,1.13573789 Z M2.14023495,49.5311344 C1.62258076,49.5311344 1.2013583,49.1099119 1.2013583,48.5922577 L1.2013583,46.6025661 L23.5887812,46.6025661 L23.5887812,49.5311344 L2.14023495,49.5311344 L2.14023495,49.5311344 Z M30.6643979,47.4097577 C30.4388253,47.0972026 30.1091887,46.9179075 29.7599266,46.9179075 C29.4107856,46.9179075 29.0810279,47.0972026 28.8554552,47.4097577 L24.6185169,53.2798568 L24.6185169,41.7787996 C24.6348715,41.7846145 24.650257,41.7915198 24.6668539,41.7969714 C24.8782526,41.8656608 25.1058847,41.9004295 25.3433297,41.9004295 C25.4564794,41.9004295 25.5701138,41.8918282 25.6839905,41.8774119 L25.6839905,46.089152 C25.6839905,46.3736013 25.9145301,46.6040198 26.1988583,46.6040198 C26.4831865,46.6040198 26.7137261,46.3736013 26.7137261,46.089152 L26.7137261,41.5993833 C27.0523275,41.4692731 27.3898385,41.3115419 27.7225037,41.15587 C28.426964,40.8261123 29.1554112,40.4852093 29.7599266,40.4852093 C30.3645631,40.4852093 31.0930103,40.8262335 31.7974706,41.15587 C32.5797063,41.5219714 33.3884728,41.9005507 34.1766446,41.9005507 C34.4140896,41.9005507 34.6416006,41.8657819 34.8529993,41.7970925 C34.8695962,41.791641 34.8851028,41.7844934 34.9013363,41.7789207 L34.9013363,53.279978 L30.6643979,47.4097577 L30.6643979,47.4097577 Z M57.3797394,49.5311344 L35.9311931,49.5311344 L35.9311931,46.6025661 L58.318616,46.6025661 L58.318616,48.5922577 C58.318616,49.1099119 57.8973935,49.5311344 57.3797394,49.5311344 L57.3797394,49.5311344 Z" id="Shape"></path>
                    <path d="M4.78653451,6.01886564 C5.80524596,6.01886564 6.63400147,5.19011013 6.63400147,4.17139868 C6.63400147,3.15268722 5.80524596,2.32393172 4.78653451,2.32393172 C3.76782305,2.32393172 2.93906755,3.15268722 2.93906755,4.17139868 C2.93906755,5.19011013 3.76782305,6.01886564 4.78653451,6.01886564 L4.78653451,6.01886564 Z M4.78653451,3.3536674 C5.23743759,3.3536674 5.60426579,3.72049559 5.60426579,4.17139868 C5.60426579,4.62230176 5.23743759,4.98912996 4.78653451,4.98912996 C4.33563142,4.98912996 3.96880323,4.62230176 3.96880323,4.17139868 C3.96880323,3.72049559 4.33563142,3.3536674 4.78653451,3.3536674 L4.78653451,3.3536674 Z" id="Shape"></path>
                    <path d="M9.93521292,6.01886564 C10.9539244,6.01886564 11.7826799,5.19011013 11.7826799,4.17139868 C11.7826799,3.15268722 10.9539244,2.32393172 9.93521292,2.32393172 C8.91650147,2.32393172 8.08774596,3.15268722 8.08774596,4.17139868 C8.08774596,5.19011013 8.91650147,6.01886564 9.93521292,6.01886564 L9.93521292,6.01886564 Z M9.93521292,3.3536674 C10.386116,3.3536674 10.7529442,3.72049559 10.7529442,4.17139868 C10.7529442,4.62230176 10.386116,4.98912996 9.93521292,4.98912996 C9.48430984,4.98912996 9.11748164,4.62230176 9.11748164,4.17139868 C9.11748164,3.72049559 9.48430984,3.3536674 9.93521292,3.3536674 L9.93521292,3.3536674 Z" id="Shape"></path>
                    <path d="M15.0838913,6.01886564 C16.1026028,6.01886564 16.9313583,5.19011013 16.9313583,4.17139868 C16.9313583,3.15268722 16.1026028,2.32393172 15.0838913,2.32393172 C14.0651799,2.32393172 13.2364244,3.15268722 13.2364244,4.17139868 C13.2364244,5.19011013 14.0651799,6.01886564 15.0838913,6.01886564 L15.0838913,6.01886564 Z M15.0838913,3.3536674 C15.5347944,3.3536674 15.9016226,3.72049559 15.9016226,4.17139868 C15.9016226,4.62230176 15.5347944,4.98912996 15.0838913,4.98912996 C14.6329883,4.98912996 14.2661601,4.62230176 14.2661601,4.17139868 C14.2661601,3.72049559 14.6329883,3.3536674 15.0838913,3.3536674 L15.0838913,3.3536674 Z" id="Shape"></path>
                    <path d="M41.0583076,26.1210022 C41.0583076,19.8911013 35.9899486,14.8227423 29.7599266,14.8227423 C23.5299046,14.8227423 18.4615455,19.8911013 18.4615455,26.1210022 C18.4615455,32.3510242 23.5299046,37.4195044 29.7599266,37.4195044 C35.9899486,37.4195044 41.0583076,32.3509031 41.0583076,26.1210022 L41.0583076,26.1210022 Z M19.4914023,26.1210022 C19.4914023,20.4590308 24.0978341,15.852478 29.7600477,15.852478 C35.4222614,15.852478 40.0286931,20.4589097 40.0286931,26.1210022 C40.0286931,31.7832159 35.4222614,36.3897687 29.7600477,36.3897687 C24.0978341,36.3897687 19.4914023,31.7832159 19.4914023,26.1210022 L19.4914023,26.1210022 Z" id="Shape"></path>
                    <path d="M37.328605,26.1210022 C37.328605,21.9477863 33.9333847,18.5524449 29.7599266,18.5524449 C25.5864684,18.5524449 22.1912482,21.9476652 22.1912482,26.1210022 C22.1912482,30.2942181 25.5864684,33.6896806 29.7599266,33.6898018 C33.9333847,33.6896806 37.328605,30.2943392 37.328605,26.1210022 L37.328605,26.1210022 Z M24.4187482,29.8860793 L28.5004993,29.8860793 C28.7848275,29.8860793 29.0153671,29.6556608 29.0153671,29.3712115 C29.0153671,29.0867621 28.7848275,28.8563436 28.5004993,28.8563436 L23.8228341,28.8563436 C23.4709068,28.0955507 23.261083,27.2566189 23.2272834,26.3728634 L30.6809949,26.3728634 C30.9653231,26.3728634 31.1958627,26.1424449 31.1958627,25.8579956 C31.1958627,25.5735463 30.9653231,25.3431278 30.6809949,25.3431278 L23.2687151,25.3431278 C23.6548054,22.1032159 26.4175257,19.5821806 29.7598054,19.5821806 C31.7241777,19.5821806 33.4876909,20.4540639 34.6873935,21.8299119 L29.8330984,21.8299119 C29.5487702,21.8299119 29.3182305,22.0603304 29.3182305,22.3447797 C29.3182305,22.6292291 29.5487702,22.8596476 29.8330984,22.8596476 L35.4237151,22.8596476 C35.9791667,23.8204515 36.2987482,24.9337775 36.2987482,26.1210022 C36.2987482,29.726652 33.3654552,32.6600661 29.7598054,32.6600661 C27.5555653,32.6598238 25.6039134,31.5622467 24.4187482,29.8860793 L24.4187482,29.8860793 Z" id="Shape"></path>
                </g>
            </g>
        </g>
    </g>
</svg>