<?xml version="1.0" encoding="UTF-8" standalone="no"?>
<svg width="73px" height="46px" viewBox="0 0 73 46" version="1.1" xmlns="http://www.w3.org/2000/svg" xmlns:xlink="http://www.w3.org/1999/xlink" xmlns:sketch="http://www.bohemiancoding.com/sketch/ns">
    <!-- Generator: Sketch 3.4.4 (17249) - http://www.bohemiancoding.com/sketch -->
    <title>icon-school</title>
    <desc>Created with Sketch.</desc>
    <defs></defs>
    <g id="Welcome" stroke="none" stroke-width="1" fill="none" fill-rule="evenodd" sketch:type="MSPage">
        <g id="homepage" sketch:type="MSArtboardGroup" transform="translate(-1153.000000, -1899.000000)" fill="#FF5E00">
            <g id="love-raw" sketch:type="MSLayerGroup" transform="translate(120.000000, 1798.000000)">
                <g id="black268" transform="translate(1033.000000, 101.000000)" sketch:type="MSShapeGroup">
                    <g id="Capa_1">
                        <g id="Group">
                            <path d="M15.8,25.7022727 L15.8,37.0977273 C15.8,37.0977273 26.7272727,32.5454545 36.4159091,32.5454545 C46.1045455,32.5454545 57.0340909,37.0977273 57.0340909,37.0977273 L57.0340909,25.5431818 C57.0340909,25.5431818 46.6090909,20.0295455 36.2545455,20.0295455 C25.9045455,20.025 15.8,25.7022727 15.8,25.7022727 L15.8,25.7022727 Z" id="Shape"></path>
                            <path d="M68.6090909,22.9886364 L72.7090909,20.7840909 L68.6090909,18.5136364 L68.6090909,17.4363636 C68.6090909,17.4363636 69.7636364,11.5818182 63.2022727,14.6431818 C62.8681818,14.825 62.6886364,15.0090909 62.6159091,15.1886364 L35.5568182,0.181818182 L0,20.5318182 L13.4272727,26.6318182 L13.4272727,24.6522727 C13.4272727,24.6522727 24.6931818,18.3272727 36.2409091,18.3272727 C47.7863636,18.3272727 59.4068182,24.475 59.4068182,24.475 L59.4068182,27.9318182 L66.8204545,23.95 L66.8204545,40.0704545 L64.3522727,40.0704545 L64.3522727,45.8 L67.6340909,43.5318182 L71.2772727,45.8 L71.2772727,40.0681818 L68.6090909,40.0681818 L68.6090909,22.9886364 L68.6090909,22.9886364 L68.6090909,22.9886364 Z M66.8181818,16.4409091 L66.8181818,17.5204545 L64.6545455,16.3204545 C65.4431818,15.7977273 66.8181818,15.0727273 66.8181818,16.4409091 L66.8181818,16.4409091 Z M66.0863636,22.7636364 C65.1295455,22.7636364 64.35,21.9886364 64.35,21.0318182 C64.35,20.075 65.1295455,19.2977273 66.0863636,19.2977273 C67.0454545,19.2977273 67.8204545,20.075 67.8204545,21.0318182 C67.8204545,21.9886364 67.0454545,22.7636364 66.0863636,22.7636364 L66.0863636,22.7636364 Z" id="Shape"></path>
                        </g>
                    </g>
                </g>
            </g>
        </g>
    </g>
</svg>