<?xml version="1.0" encoding="UTF-8" standalone="no"?>
<svg width="50px" height="50px" viewBox="0 0 50 50" version="1.1" xmlns="http://www.w3.org/2000/svg" xmlns:xlink="http://www.w3.org/1999/xlink" xmlns:sketch="http://www.bohemiancoding.com/sketch/ns">
    <!-- Generator: Sketch 3.4.4 (17249) - http://www.bohemiancoding.com/sketch -->
    <title>icon-submissions</title>
    <desc>Created with Sketch.</desc>
    <defs></defs>
    <g id="Welcome" stroke="none" stroke-width="1" fill="none" fill-rule="evenodd" sketch:type="MSPage">
        <g id="homepage" sketch:type="MSArtboardGroup" transform="translate(-531.000000, -1899.000000)" fill="#FF5E00">
            <g id="love-raw" sketch:type="MSLayerGroup" transform="translate(120.000000, 1798.000000)">
                <g id="dice20" transform="translate(411.000000, 101.000000)" sketch:type="MSShapeGroup">
                    <g id="Capa_1">
                        <g id="Group">
                            <path d="M48.9025896,17.0001992 C48.3525896,17.0001992 47.9065737,17.4460159 47.9065737,17.9962151 L47.9065737,18.5938247 C47.9065737,19.1440239 48.3525896,19.5898406 48.9025896,19.5898406 C49.4525896,19.5898406 49.8986056,19.1440239 49.8986056,18.5938247 L49.8986056,17.9962151 C49.8986056,17.4460159 49.4525896,17.0001992 48.9025896,17.0001992 L48.9025896,17.0001992 Z" id="Shape"></path>
                            <path d="M44.9344622,0.000199203188 L24.3189243,0.000199203188 C21.5816733,0.000199203188 19.3547809,2.22709163 19.3547809,4.96434263 L19.3547809,19.3553785 L4.96354582,19.3553785 C2.22669323,19.3553785 0,21.5820717 0,24.3191235 L0,27.5579681 C0,28.1081673 0.446015936,28.5539841 0.996015936,28.5539841 C1.54601594,28.5539841 1.99203187,28.1081673 1.99203187,27.5579681 L1.99203187,24.3191235 C1.99203187,22.6804781 3.3250996,21.3474104 4.96354582,21.3474104 L25.5792829,21.3474104 C27.2177291,21.3474104 28.5507968,22.6804781 28.5507968,24.3191235 L28.5507968,44.9348606 C28.5507968,46.573506 27.2177291,47.9063745 25.5792829,47.9063745 L4.96354582,47.9063745 C3.3249004,47.9063745 1.99203187,46.573506 1.99203187,44.9348606 L1.99203187,32.1396414 C1.99203187,31.5894422 1.54601594,31.1436255 0.996015936,31.1436255 C0.446015936,31.1436255 3.53855944e-16,31.5894422 3.53855944e-16,32.1396414 L3.53855944e-16,44.9348606 C3.53855944e-16,47.6717131 2.22669323,49.8984064 4.96354582,49.8984064 L25.5792829,49.8984064 C28.3163347,49.8984064 30.5428287,47.6717131 30.5428287,44.9348606 L30.5428287,30.5440239 L44.9342629,30.5440239 C47.6715139,30.5440239 49.8984064,28.3169323 49.8984064,25.5796813 L49.8984064,21.6482072 C49.8984064,21.098008 49.4523904,20.6521912 48.9023904,20.6521912 C48.3523904,20.6521912 47.9063745,21.098008 47.9063745,21.6482072 L47.9063745,25.5796813 C47.9063745,27.2187251 46.5731076,28.551992 44.9342629,28.551992 L30.5428287,28.551992 L30.5428287,24.3191235 C30.5428287,21.5820717 28.3161355,19.3553785 25.5792829,19.3553785 L21.3466135,19.3553785 L21.3466135,4.96434263 C21.3466135,3.32549801 22.6798805,1.99223108 24.3187251,1.99223108 L44.9342629,1.99223108 C46.5731076,1.99223108 47.9063745,3.32549801 47.9063745,4.96434263 L47.9063745,14.8752988 C47.9063745,15.425498 48.3523904,15.8713147 48.9023904,15.8713147 C49.4523904,15.8713147 49.8984064,15.425498 49.8984064,14.8752988 L49.8984064,4.96434263 C49.8986056,2.22689243 47.6715139,0.000199203188 44.9344622,0.000199203188 L44.9344622,0.000199203188 Z" id="Shape"></path>
                            <circle id="Oval" cx="8.26613546" cy="27.1966135" r="1.94203187"></circle>
                            <circle id="Oval" cx="8.26613546" cy="34.5770916" r="1.94203187"></circle>
                            <circle id="Oval" cx="8.26613546" cy="41.9575697" r="1.94203187"></circle>
                            <path d="M22.3099602,29.1386454 C23.3825147,29.1386454 24.251992,28.2691681 24.251992,27.1966135 C24.251992,26.124059 23.3825147,25.2545817 22.3099602,25.2545817 C21.2374056,25.2545817 20.3679283,26.124059 20.3679283,27.1966135 C20.3679283,28.2691681 21.2374056,29.1386454 22.3099602,29.1386454 Z" id="Oval"></path>
                            <path d="M22.3099602,36.5191235 C23.3825147,36.5191235 24.251992,35.6496462 24.251992,34.5770916 C24.251992,33.504537 23.3825147,32.6350598 22.3099602,32.6350598 C21.2374056,32.6350598 20.3679283,33.504537 20.3679283,34.5770916 C20.3679283,35.6496462 21.2374056,36.5191235 22.3099602,36.5191235 Z" id="Oval"></path>
                            <circle id="Oval" cx="22.3099602" cy="41.9575697" r="1.94203187"></circle>
                            <circle id="Oval" cx="34.6266932" cy="15.2719124" r="1.94203187"></circle>
                        </g>
                    </g>
                </g>
            </g>
        </g>
    </g>
</svg>