<?xml version="1.0" encoding="UTF-8" standalone="no"?>
<svg width="50px" height="50px" viewBox="0 0 50 50" version="1.1" xmlns="http://www.w3.org/2000/svg" xmlns:xlink="http://www.w3.org/1999/xlink" xmlns:sketch="http://www.bohemiancoding.com/sketch/ns">
    <!-- Generator: Sketch 3.4.4 (17249) - http://www.bohemiancoding.com/sketch -->
    <title>icon-second</title>
    <desc>Created with Sketch.</desc>
    <defs></defs>
    <g id="Welcome" stroke="none" stroke-width="1" fill="none" fill-rule="evenodd" sketch:type="MSPage">
        <g id="homepage" sketch:type="MSArtboardGroup" transform="translate(-220.000000, -1899.000000)" fill="#FF5E00">
            <g id="love-raw" sketch:type="MSLayerGroup" transform="translate(120.000000, 1798.000000)">
                <g id="circular116" transform="translate(100.000000, 101.000000)" sketch:type="MSShapeGroup">
                    <g id="Capa_1">
                        <g id="Group">
                            <path d="M24.937037,0.00185185185 C11.187037,0.00185185185 0,11.1888889 0,24.9388889 C0,38.6888889 11.187037,49.8759259 24.937037,49.8759259 C38.6907407,49.8759259 49.8777778,38.6888889 49.8777778,24.9388889 C49.8777778,11.1888889 38.6907407,0.00185185185 24.937037,0.00185185185 L24.937037,0.00185185185 Z M24.937037,47.6222222 C12.4277778,47.6222222 2.25555556,37.4462963 2.25555556,24.9388889 C2.25555556,12.4296296 12.4277778,2.2537037 24.937037,2.2537037 C37.4462963,2.2537037 47.6203704,12.4296296 47.6203704,24.9388889 C47.6203704,37.4481481 37.4462963,47.6222222 24.937037,47.6222222 L24.937037,47.6222222 Z" id="Shape"></path>
                            <path d="M17.2481481,8.52777778 L16.3259259,6.69814815 L15.3166667,7.20925926 L16.2444444,9.04444444 C16.5722222,8.85925926 16.9111111,8.69074074 17.2481481,8.52777778 L17.2481481,8.52777778 Z" id="Shape"></path>
                            <path d="M6.71851852,25.3148148 C6.71851852,24.9333333 6.7537037,24.5611111 6.77407407,24.1851852 L4.18518519,24.1851852 L4.18518519,26.4462963 L6.77407407,26.4462963 C6.75185185,26.0703704 6.71851852,25.6981481 6.71851852,25.3148148 L6.71851852,25.3148148 Z" id="Shape"></path>
                            <path d="M26.5240741,6.6962963 L26.5240741,4.10740741 L24.262963,4.10740741 L24.262963,6.6962963 C24.6388889,6.67407407 25.0111111,6.64074074 25.3944444,6.64074074 C25.7759259,6.63888889 26.15,6.67407407 26.5240741,6.6962963 L26.5240741,6.6962963 Z" id="Shape"></path>
                            <path d="M44.5592593,16.7740741 L44.0481481,15.7666667 L42.0055556,16.8055556 C42.1796296,17.1388889 42.3481481,17.4759259 42.4981481,17.8240741 L44.5592593,16.7740741 L44.5592593,16.7740741 Z" id="Shape"></path>
                            <path d="M35.2833333,9.49259259 C35.6055556,9.69259259 35.9203704,9.9 36.2240741,10.1185185 L37.3574074,8.35925926 L36.4074074,7.7462963 L35.2833333,9.49259259 L35.2833333,9.49259259 Z" id="Shape"></path>
                            <path d="M7.61666667,14.3 L9.47592593,15.5814815 C9.67407407,15.2592593 9.87222222,14.9388889 10.0888889,14.6296296 L8.26111111,13.3666667 L7.61666667,14.3 L7.61666667,14.3 Z" id="Shape"></path>
                            <path d="M33.0796296,42.3259259 L34.4611111,45.062963 L35.4703704,44.5518519 L34.0981481,41.837037 C33.7666667,42.012963 33.4240741,42.1703704 33.0796296,42.3259259 L33.0796296,42.3259259 Z" id="Shape"></path>
                            <path d="M40.1481481,36.7481481 L42.5314815,38.3925926 L43.1722222,37.462963 L40.8222222,35.8425926 C40.6111111,36.1518519 40.3759259,36.45 40.1481481,36.7481481 L40.1481481,36.7481481 Z" id="Shape"></path>
                            <path d="M44.0185185,24.1851852 C44.0425926,24.562963 44.0759259,24.9351852 44.0759259,25.3148148 C44.0759259,25.6981481 44.0388889,26.0703704 44.0185185,26.4462963 L46.6055556,26.4462963 L46.6055556,24.1851852 L44.0185185,24.1851852 L44.0185185,24.1851852 Z" id="Shape"></path>
                            <path d="M24.2648148,43.937037 L24.2648148,46.5277778 L26.5259259,46.5277778 L26.5259259,43.937037 C26.1518519,43.962963 25.7777778,43.9962963 25.3981481,43.9962963 C25.012963,43.9944444 24.6407407,43.9574074 24.2648148,43.937037 L24.2648148,43.937037 Z" id="Shape"></path>
                            <path d="M13.4314815,43.4037037 L14.3833333,44.0185185 L16.0314815,41.4611111 C15.7037037,41.2703704 15.3777778,41.0814815 15.0666667,40.8722222 L13.4314815,43.4037037 L13.4314815,43.4037037 Z" id="Shape"></path>
                            <path d="M6.23148148,34.9925926 L6.74444444,35.9981481 L9.27037037,34.7148148 C9.07962963,34.3888889 8.8962963,34.0592593 8.72777778,33.7222222 L6.23148148,34.9925926 L6.23148148,34.9925926 Z" id="Shape"></path>
                            <path d="M26.1907407,8.66111111 L24.6,8.66111111 L24.6,24.2018519 L24.6,24.9388889 L24.6,25.937037 L15.1925926,36.2611111 L15.4425926,36.4888889 L24.6092593,26.4296296 L36.7333333,26.4296296 L36.7333333,24.2018519 L26.1907407,24.2018519 L26.1907407,8.66111111 Z" id="Shape"></path>
                        </g>
                    </g>
                </g>
            </g>
        </g>
    </g>
</svg>