<?xml version="1.0" encoding="UTF-8" standalone="no"?>
<svg width="56px" height="55px" viewBox="0 0 56 55" version="1.1" xmlns="http://www.w3.org/2000/svg" xmlns:xlink="http://www.w3.org/1999/xlink" xmlns:sketch="http://www.bohemiancoding.com/sketch/ns">
    <!-- Generator: Sketch 3.4.4 (17249) - http://www.bohemiancoding.com/sketch -->
    <title>icon-contest</title>
    <desc>Created with Sketch.</desc>
    <defs></defs>
    <g id="Welcome" stroke="none" stroke-width="1" fill="none" fill-rule="evenodd" sketch:type="MSPage">
        <g id="homepage" sketch:type="MSArtboardGroup" transform="translate(-1150.000000, -858.000000)" fill="#FF5E00">
            <g id="how-it-works" sketch:type="MSLayerGroup" transform="translate(116.000000, 750.000000)">
                <g id="find-again-contest-icon" transform="translate(1035.000000, 108.000000)" sketch:type="MSShapeGroup">
                    <path d="M49.2697323,44.3025937 C53.0187107,39.4549613 55,33.6518797 55,27.5 C55,20.1544477 52.1394541,13.2486389 46.9453355,8.05453132 C41.7513331,2.86053986 34.8453936,0 27.4999419,0 C20.1544903,0 13.2485508,2.86053986 8.05454833,8.05453132 C2.86042976,13.2486389 0,20.1544477 0,27.5 C0,34.8455523 2.86042976,41.7513611 8.05454833,46.9454687 C13.2485508,52.1395763 20.1544903,55 27.4999419,55 C33.5715749,55 39.3253049,53.0613419 44.1422839,49.3937925 L46.1549337,51.4064381 C46.2475054,51.4990096 46.3730637,51.5510447 46.5039649,51.5510447 C46.6348662,51.5510447 46.7604245,51.4990096 46.8529961,51.4064381 L51.2641466,46.9951808 C51.4569558,46.802372 51.4569558,46.4898126 51.2641466,46.2970038 L49.2697323,44.3025937 L49.2697323,44.3025937 Z M27.4999419,54.0127258 C12.8808194,54.0127258 0.987160129,42.1192078 0.987160129,27.5 C0.987160129,12.8807922 12.8808194,0.987274194 27.4999419,0.987274194 C42.1190645,0.987274194 54.0127237,12.8807922 54.0127237,27.5 C54.0127237,33.388684 52.1300459,38.9458763 48.5658624,43.5988415 L40.5085265,35.5415225 L49.4951798,31.6525914 C49.6855499,31.5702411 49.804023,31.3777807 49.7920596,31.1708016 C49.7799799,30.9638225 49.6399029,30.7864616 49.4412861,30.7267605 L47.0944723,30.0218467 C47.2004012,29.1899811 47.2563856,28.343016 47.2563856,27.5001161 C47.2563856,16.6064165 38.3936645,7.74383033 27.5000581,7.74383033 C16.6064516,7.74383033 7.74361438,16.6064165 7.74361438,27.5 C7.74361438,38.3935835 16.6063355,47.2562858 27.4999419,47.2562858 C28.2829101,47.2562858 29.0688982,47.2071544 29.8433874,47.1157444 L30.5846576,49.5833492 C30.6443588,49.7818494 30.8217201,49.9220423 31.0285835,49.9341219 C31.2383507,49.9460853 31.4280239,49.8276124 31.5103743,49.6373589 L35.3993137,40.6507246 L43.4370202,48.6885303 C38.8150573,52.1716337 33.3089594,54.0127258 27.4999419,54.0127258 L27.4999419,54.0127258 Z M22.7521884,23.5092054 L26.9080408,37.3444014 C21.7438889,37.0370687 17.6362388,32.740103 17.6362388,27.5001161 C17.6362388,22.0612807 22.061095,17.6365501 27.4999419,17.6365501 C32.8032416,17.6365501 37.1404044,21.8440804 37.3534238,27.0959145 L23.3669711,22.894424 C23.1930943,22.8420404 23.0043504,22.8896618 22.8758883,23.0181236 C22.7474262,23.1465854 22.6999208,23.3352128 22.7521884,23.5092054 L22.7521884,23.5092054 Z M38.3495275,27.3950005 C38.2928462,21.4600888 33.4481073,16.6491597 27.4999419,16.6491597 C21.5166992,16.6491597 16.6489626,21.5168861 16.6489626,27.5 C16.6489626,33.3861287 21.3598965,38.1924118 27.2093342,38.3470073 L29.5551027,46.1561139 C28.8749274,46.2299853 28.186157,46.2690116 27.4999419,46.2690116 C17.1507312,46.2690116 8.73089066,37.849305 8.73089066,27.5 C8.73089066,17.150695 17.1507312,8.73098837 27.4999419,8.73098837 C37.8491526,8.73098837 46.2689932,17.150695 46.2689932,27.5 C46.2689932,28.2462631 46.2220685,28.9955462 46.1347236,29.7335627 L38.3495275,27.3950005 L38.3495275,27.3950005 Z M46.5039649,50.3593467 L35.5837601,39.4390488 C35.4903754,39.3456642 35.3643525,39.2944421 35.2347289,39.2944421 C35.2039491,39.2944421 35.1730532,39.2973459 35.1422734,39.3031534 C34.9816377,39.3338169 34.8465551,39.4419525 34.7817433,39.5920182 L31.1412491,48.0046397 L23.9616599,24.1038929 L47.8624571,31.283467 L39.4498179,34.9239535 C39.2997519,34.9888813 39.1914999,35.1238475 39.1609524,35.2844828 C39.1302888,35.4451181 39.1811626,35.6103994 39.2968481,35.7260847 L50.217053,46.6462665 L46.5039649,50.3593467 L46.5039649,50.3593467 Z" id="Shape"></path>
                    <path d="M27.4974507,3.99489211 C33.7765662,3.99489211 39.6799601,6.44021986 44.1200296,10.8801307 C48.559982,15.3201586 51.0050986,21.2233802 51.0050986,27.5025539 C51.0050986,27.7772612 51.2277224,28 51.5025493,28 C51.7772591,28 52,27.7772612 52,27.5025539 C52,20.9576855 49.4514137,14.8045704 44.8233664,10.1766835 C40.1955531,5.54867949 34.0423805,3 27.4974507,3 C27.2227409,3 27,3.22273879 27,3.49744605 C27,3.77215332 27.2226238,3.99489211 27.4974507,3.99489211 L27.4974507,3.99489211 Z" id="Shape"></path>
                    <path d="M27.5025493,51.0051032 C14.5403883,51.0051032 3.99490142,40.4595487 3.99490142,27.4974484 C3.99490142,27.2227398 3.7722776,27 3.49745071,27 C3.22262382,27 3,27.2227398 3,27.4974484 C3,41.0082635 13.991788,52 27.5025493,52 C27.7773762,52 28,51.7772602 28,51.5025516 C28,51.2278431 27.7773762,51.0051032 27.5025493,51.0051032 L27.5025493,51.0051032 Z" id="Shape"></path>
                    <path d="M27.4960521,11 C18.4000893,11 11,18.4000377 11,27.4960556 C11,27.7743515 11.2255315,28 11.5039479,28 C11.7823643,28 12.0078958,27.7743515 12.0078958,27.4960556 C12.0078958,18.9559179 18.9558549,12.0078887 27.4960521,12.0078887 C27.7744685,12.0078887 28,11.7822402 28,11.5039444 C28,11.2255299 27.7744685,11 27.4960521,11 L27.4960521,11 Z" id="Shape"></path>
                </g>
            </g>
        </g>
    </g>
</svg>